{
  "header": {
    "PPQ": 96,
    "timeSignature": [
      4,
      4
    ],
    "bpm": 100,
    "name": ""
  },
  "tempo": [
    {
      "absoluteTime": 0,
      "seconds": 0,
      "bpm": 100
    }
  ],
  "timeSignature": [
    {
      "absoluteTime": 0,
      "seconds": 0,
      "numerator": 4,
      "denominator": 2,
      "click": 24,
      "notesQ": 8
    }
  ],
  "startTime": 0,
  "duration": 37.50000000000002,
  "tracks": [
    {
      "startTime": 0,
      "duration": 0,
      "length": 0,
      "notes": [],
      "controlChanges": {},
      "id": 0
    },
    {
      "startTime": 0,
      "duration": 0,
      "length": 0,
      "notes": [],
      "controlChanges": {},
      "id": 1
    },
    {
      "startTime": 0,
      "duration": 37.50000000000002,
      "length": 57,
      "notes": [
        {
          "name": "C4",
          "midi": 60,
          "time": 0,
          "velocity": 0.7874015748031497,
          "duration": 0.3
        },
        {
          "name": "D4",
          "midi": 62,
          "time": 1.2,
          "velocity": 0.8188976377952756,
          "duration": 0.30000000000000004
        },
        {
          "name": "E5",
          "midi": 76,
          "time": 2.4,
          "velocity": 0.7874015748031497,
          "duration": 0.6000000000000001
        },
        {
          "name": "D5",
          "midi": 74,
          "time": 3,
          "velocity": 0.7874015748031497,
          "duration": 0.6000000000000001
        },
        {
          "name": "C5",
          "midi": 72,
          "time": 3.6,
          "velocity": 0.7874015748031497,
          "duration": 0.6000000000000001
        },
        {
          "name": "E4",
          "midi": 64,
          "time": 4.2,
          "velocity": 0.7874015748031497,
          "duration": 0.2999999999999998
        },
        {
          "name": "C4",
          "midi": 60,
          "time": 4.8,
          "velocity": 0.7874015748031497,
          "duration": 0.2999999999999998
        },
        {
          "name": "D4",
          "midi": 62,
          "time": 6,
          "velocity": 0.7874015748031497,
          "duration": 0.2999999999999998
        },
        {
          "name": "E5",
          "midi": 76,
          "time": 7.199999999999999,
          "velocity": 0.7874015748031497,
          "duration": 0.5999999999999996
        },
        {
          "name": "F#4",
          "midi": 66,
          "time": 7.799999999999999,
          "velocity": 0.7874015748031497,
          "duration": 0.3000000000000007
        },
        {
          "name": "E4",
          "midi": 64,
          "time": 8.4,
          "velocity": 0.7874015748031497,
          "duration": 0.3000000000000007
        },
        {
          "name": "C4",
          "midi": 60,
          "time": 9.600000000000001,
          "velocity": 0.7874015748031497,
          "duration": 0.3000000000000007
        },
        {
          "name": "D4",
          "midi": 62,
          "time": 10.800000000000002,
          "velocity": 0.7874015748031497,
          "duration": 0.3000000000000007
        },
        {
          "name": "E5",
          "midi": 76,
          "time": 12.000000000000004,
          "velocity": 0.7874015748031497,
          "duration": 0.5999999999999996
        },
        {
          "name": "D5",
          "midi": 74,
          "time": 12.600000000000003,
          "velocity": 0.7874015748031497,
          "duration": 0.5999999999999996
        },
        {
          "name": "C5",
          "midi": 72,
          "time": 13.200000000000003,
          "velocity": 0.7874015748031497,
          "duration": 0.5999999999999996
        },
        {
          "name": "E4",
          "midi": 64,
          "time": 13.800000000000002,
          "velocity": 0.8188976377952756,
          "duration": 0.3000000000000007
        },
        {
          "name": "C4",
          "midi": 60,
          "time": 14.400000000000004,
          "velocity": 0.8188976377952756,
          "duration": 0.3000000000000007
        },
        {
          "name": "D4",
          "midi": 62,
          "time": 15.600000000000005,
          "velocity": 0.8188976377952756,
          "duration": 0.3000000000000007
        },
        {
          "name": "C5",
          "midi": 72,
          "time": 16.800000000000004,
          "velocity": 0.8188976377952756,
          "duration": 0.6000000000000014
        },
        {
          "name": "F#4",
          "midi": 66,
          "time": 17.400000000000006,
          "velocity": 0.8188976377952756,
          "duration": 0.3000000000000007
        },
        {
          "name": "E4",
          "midi": 64,
          "time": 18.000000000000007,
          "velocity": 0.8188976377952756,
          "duration": 0.3000000000000007
        },
        {
          "name": "E5",
          "midi": 76,
          "time": 19.200000000000006,
          "velocity": 0.8188976377952756,
          "duration": 0.3000000000000007
        },
        {
          "name": "D5",
          "midi": 74,
          "time": 19.500000000000007,
          "velocity": 0.8188976377952756,
          "duration": 0.3000000000000007
        },
        {
          "name": "C5",
          "midi": 72,
          "time": 19.800000000000008,
          "velocity": 0.8188976377952756,
          "duration": 0.3000000000000007
        },
        {
          "name": "D5",
          "midi": 74,
          "time": 20.10000000000001,
          "velocity": 0.8188976377952756,
          "duration": 0.3000000000000007
        },
        {
          "name": "E5",
          "midi": 76,
          "time": 20.40000000000001,
          "velocity": 0.8188976377952756,
          "duration": 0.3000000000000007
        },
        {
          "name": "E5",
          "midi": 76,
          "time": 21.60000000000001,
          "velocity": 0.8188976377952756,
          "duration": 0.3000000000000007
        },
        {
          "name": "D5",
          "midi": 74,
          "time": 21.90000000000001,
          "velocity": 0.8188976377952756,
          "duration": 0.3000000000000007
        },
        {
          "name": "C5",
          "midi": 72,
          "time": 22.20000000000001,
          "velocity": 0.8188976377952756,
          "duration": 0.3000000000000007
        },
        {
          "name": "D5",
          "midi": 74,
          "time": 22.50000000000001,
          "velocity": 0.8188976377952756,
          "duration": 0.3000000000000007
        },
        {
          "name": "E5",
          "midi": 76,
          "time": 22.80000000000001,
          "velocity": 0.8188976377952756,
          "duration": 0.3000000000000007
        },
        {
          "name": "C5",
          "midi": 72,
          "time": 24.00000000000001,
          "velocity": 0.8188976377952756,
          "duration": 0.6000000000000014
        },
        {
          "name": "D5",
          "midi": 74,
          "time": 24.600000000000012,
          "velocity": 0.8188976377952756,
          "duration": 0.6000000000000014
        },
        {
          "name": "C5",
          "midi": 72,
          "time": 25.200000000000014,
          "velocity": 0.8188976377952756,
          "duration": 0.6000000000000014
        },
        {
          "name": "D5",
          "midi": 74,
          "time": 25.800000000000015,
          "velocity": 0.8188976377952756,
          "duration": 0.6000000000000014
        },
        {
          "name": "E5",
          "midi": 76,
          "time": 26.400000000000016,
          "velocity": 0.8188976377952756,
          "duration": 0.6000000000000014
        },
        {
          "name": "F#4",
          "midi": 66,
          "time": 27.000000000000018,
          "velocity": 0.8188976377952756,
          "duration": 0.3000000000000007
        },
        {
          "name": "E4",
          "midi": 64,
          "time": 27.60000000000002,
          "velocity": 0.8188976377952756,
          "duration": 0.3000000000000007
        },
        {
          "name": "C4",
          "midi": 60,
          "time": 28.20000000000002,
          "velocity": 0.8188976377952756,
          "duration": 0.3000000000000007
        },
        {
          "name": "C5",
          "midi": 72,
          "time": 28.81250000000002,
          "velocity": 0.8188976377952756,
          "duration": 0.3000000000000007
        },
        {
          "name": "D5",
          "midi": 74,
          "time": 29.112500000000022,
          "velocity": 0.8188976377952756,
          "duration": 0.3000000000000007
        },
        {
          "name": "E5",
          "midi": 76,
          "time": 29.412500000000023,
          "velocity": 0.8188976377952756,
          "duration": 0.3000000000000007
        },
        {
          "name": "D5",
          "midi": 74,
          "time": 29.712500000000023,
          "velocity": 0.8188976377952756,
          "duration": 0.3000000000000007
        },
        {
          "name": "C5",
          "midi": 72,
          "time": 30.012500000000024,
          "velocity": 0.8188976377952756,
          "duration": 0.3000000000000007
        },
        {
          "name": "C5",
          "midi": 72,
          "time": 31.212500000000023,
          "velocity": 0.8188976377952756,
          "duration": 0.3000000000000007
        },
        {
          "name": "D5",
          "midi": 74,
          "time": 31.512500000000024,
          "velocity": 0.8188976377952756,
          "duration": 0.3000000000000007
        },
        {
          "name": "E5",
          "midi": 76,
          "time": 31.812500000000025,
          "velocity": 0.8188976377952756,
          "duration": 0.3000000000000007
        },
        {
          "name": "D5",
          "midi": 74,
          "time": 32.112500000000026,
          "velocity": 0.8188976377952756,
          "duration": 0.29999999999999716
        },
        {
          "name": "C5",
          "midi": 72,
          "time": 32.41250000000002,
          "velocity": 0.8188976377952756,
          "duration": 0.29999999999999716
        },
        {
          "name": "E5",
          "midi": 76,
          "time": 33.61250000000002,
          "velocity": 0.8188976377952756,
          "duration": 0.6000000000000014
        },
        {
          "name": "D5",
          "midi": 74,
          "time": 34.21250000000002,
          "velocity": 0.8188976377952756,
          "duration": 0.6000000000000014
        },
        {
          "name": "E5",
          "midi": 76,
          "time": 34.81250000000002,
          "velocity": 0.8188976377952756,
          "duration": 0.6000000000000014
        },
        {
          "name": "D5",
          "midi": 74,
          "time": 35.41250000000002,
          "velocity": 0.8188976377952756,
          "duration": 0.6000000000000014
        },
        {
          "name": "C5",
          "midi": 72,
          "time": 36.012500000000024,
          "velocity": 0.8188976377952756,
          "duration": 0.6000000000000014
        },
        {
          "name": "F#4",
          "midi": 66,
          "time": 36.60000000000002,
          "velocity": 0.8188976377952756,
          "duration": 0.30000000000000426
        },
        {
          "name": "C4",
          "midi": 60,
          "time": 37.200000000000024,
          "velocity": 0.8188976377952756,
          "duration": 0.29999999999999716
        }
      ],
      "controlChanges": {
        "6": [
          {
            "number": 6,
            "time": 0,
            "value": 0.09448818897637795
          },
          {
            "number": 6,
            "time": 0,
            "value": 0.09448818897637795
          },
          {
            "number": 6,
            "time": 0,
            "value": 0.09448818897637795
          },
          {
            "number": 6,
            "time": 38.40000000000002,
            "value": 0.09448818897637795
          },
          {
            "number": 6,
            "time": 38.40625000000002,
            "value": 0.09448818897637795
          }
        ],
        "7": [
          {
            "number": 7,
            "time": 0,
            "value": 0.7874015748031497
          },
          {
            "number": 7,
            "time": 0,
            "value": 0.7874015748031497
          },
          {
            "number": 7,
            "time": 0,
            "value": 0.7874015748031497
          },
          {
            "number": 7,
            "time": 0,
            "value": 0.7874015748031497
          },
          {
            "number": 7,
            "time": 38.40000000000002,
            "value": 0.7874015748031497
          },
          {
            "number": 7,
            "time": 38.40625000000002,
            "value": 0.7874015748031497
          }
        ],
        "10": [
          {
            "number": 10,
            "time": 0,
            "value": 0.5039370078740157
          },
          {
            "number": 10,
            "time": 0,
            "value": 0.5039370078740157
          },
          {
            "number": 10,
            "time": 0,
            "value": 0.5039370078740157
          },
          {
            "number": 10,
            "time": 0,
            "value": 0.5039370078740157
          },
          {
            "number": 10,
            "time": 38.40000000000002,
            "value": 0.5039370078740157
          },
          {
            "number": 10,
            "time": 38.40625000000002,
            "value": 0.5039370078740157
          }
        ],
        "100": [
          {
            "number": 100,
            "time": 0,
            "value": 0
          },
          {
            "number": 100,
            "time": 0,
            "value": 0
          },
          {
            "number": 100,
            "time": 0,
            "value": 0
          },
          {
            "number": 100,
            "time": 38.40000000000002,
            "value": 0
          },
          {
            "number": 100,
            "time": 38.40625000000002,
            "value": 0
          }
        ],
        "101": [
          {
            "number": 101,
            "time": 0,
            "value": 0
          },
          {
            "number": 101,
            "time": 0,
            "value": 0
          },
          {
            "number": 101,
            "time": 0,
            "value": 0
          },
          {
            "number": 101,
            "time": 38.40000000000002,
            "value": 0
          },
          {
            "number": 101,
            "time": 38.40625000000002,
            "value": 0
          }
        ]
      },
      "id": 2,
      "name": "Kirby's_Dream_Land_3",
      "instrumentNumber": 0,
      "instrument": "acoustic grand piano",
      "instrumentFamily": "piano",
      "channelNumber": 0,
      "isPercussion": false
    }
  ]
}