{
  "header": {
    "PPQ": 96,
    "timeSignature": [
      4,
      4
    ],
    "bpm": 100,
    "name": "Kirby's_Dream_Land_3 #2"
  },
  "tempo": [
    {
      "absoluteTime": 0,
      "seconds": 0,
      "bpm": 100
    }
  ],
  "timeSignature": [
    {
      "absoluteTime": 0,
      "seconds": 0,
      "numerator": 4,
      "denominator": 2,
      "click": 24,
      "notesQ": 8
    }
  ],
  "startTime": 0,
  "duration": 37.49999999999998,
  "tracks": [
    {
      "startTime": 0,
      "duration": 0,
      "length": 0,
      "notes": [],
      "controlChanges": {},
      "id": 0
    },
    {
      "startTime": 0,
      "duration": 0,
      "length": 0,
      "notes": [],
      "controlChanges": {},
      "id": 1
    },
    {
      "startTime": 0,
      "duration": 37.49999999999998,
      "length": 49,
      "notes": [
        {
          "name": "C4",
          "midi": 60,
          "time": 0,
          "velocity": 0.7874015748031497,
          "duration": 0.3
        },
        {
          "name": "D4",
          "midi": 62,
          "time": 1.2,
          "velocity": 0.8188976377952756,
          "duration": 0.30000000000000004
        },
        {
          "name": "F#5",
          "midi": 78,
          "time": 2.4,
          "velocity": 0.7874015748031497,
          "duration": 0.1499999999999999,
          "slideParing": 1
        },
        {
          "name": "C5",
          "midi": 72,
          "time": 4.05,
          "velocity": 0.7874015748031497,
          "duration": 0.15000000000000036,
          "slideParing": 1 
        },
        {
          "name": "E4",
          "midi": 64,
          "time": 4.2,
          "velocity": 0.7874015748031497,
          "duration": 0.2999999999999998
        },
        {
          "name": "C4",
          "midi": 60,
          "time": 4.8,
          "velocity": 0.7874015748031497,
          "duration": 0.2999999999999998
        },
        {
          "name": "D4",
          "midi": 62,
          "time": 6,
          "velocity": 0.7874015748031497,
          "duration": 0.2999999999999998
        },
        {
          "name": "E5",
          "midi": 76,
          "time": 7.199999999999999,
          "velocity": 0.7874015748031497,
          "duration": 0.5999999999999996
        },
        {
          "name": "F#4",
          "midi": 66,
          "time": 7.799999999999999,
          "velocity": 0.7874015748031497,
          "duration": 0.3000000000000007
        },
        {
          "name": "E4",
          "midi": 64,
          "time": 8.4,
          "velocity": 0.7874015748031497,
          "duration": 0.3000000000000007
        },
        {
          "name": "C4",
          "midi": 60,
          "time": 9.600000000000001,
          "velocity": 0.7874015748031497,
          "duration": 0.3000000000000007
        },
        {
          "name": "D4",
          "midi": 62,
          "time": 10.800000000000002,
          "velocity": 0.7874015748031497,
          "duration": 0.3000000000000007
        },
        {
          "name": "F#5",
          "midi": 78,
          "time": 12.000000000000004,
          "velocity": 0.7874015748031497,
          "duration": 0.1500000000000003,
          "slideParing": 2
        },
        {
          "name": "C5",
          "midi": 72,
          "time": 12.450000000000005,
          "velocity": 0.7874015748031497,
          "duration": 0.15000000000000036,
          "slideParing": 2
        },
        {
          "name": "C5",
          "midi": 72,
          "time": 13.200000000000005,
          "velocity": 0.7874015748031497,
          "duration": 0.15000000000000036,
          "slideParing": 3
        },
        {
          "name": "F#5",
          "midi": 78,
          "time": 13.650000000000006,
          "velocity": 0.7874015748031497,
          "duration": 0.15000000000000036
          "slideParing": 3
        },
        {
          "name": "E4",
          "midi": 64,
          "time": 13.800000000000006,
          "velocity": 0.8188976377952756,
          "duration": 0.3000000000000007
        },
        {
          "name": "C4",
          "midi": 60,
          "time": 14.400000000000007,
          "velocity": 0.8188976377952756,
          "duration": 0.3000000000000007
        },
        {
          "name": "D4",
          "midi": 62,
          "time": 15.600000000000009,
          "velocity": 0.8188976377952756,
          "duration": 0.3000000000000007
        },
        {
          "name": "C5",
          "midi": 72,
          "time": 16.800000000000008,
          "velocity": 0.8188976377952756,
          "duration": 0.6000000000000014
        },
        {
          "name": "F#4",
          "midi": 66,
          "time": 17.40000000000001,
          "velocity": 0.8188976377952756,
          "duration": 0.3000000000000007
        },
        {
          "name": "E4",
          "midi": 64,
          "time": 18.00000000000001,
          "velocity": 0.8188976377952756,
          "duration": 0.3000000000000007
        },
        {
          "name": "C4",
          "midi": 60,
          "time": 19.20000000000001,
          "velocity": 0.7874015748031497,
          "duration": 0.3000000000000007
        },
        {
          "name": "D4",
          "midi": 62,
          "time": 19.80000000000001,
          "velocity": 0.7874015748031497,
          "duration": 0.3000000000000007
        },
        {
          "name": "D4",
          "midi": 62,
          "time": 21.00000000000001,
          "velocity": 0.7874015748031497,
          "duration": 0.3000000000000007
        },
        {
          "name": "C4",
          "midi": 60,
          "time": 21.600000000000012,
          "velocity": 0.7874015748031497,
          "duration": 0.3000000000000007
        },
        {
          "name": "E4",
          "midi": 64,
          "time": 22.80000000000001,
          "velocity": 0.7874015748031497,
          "duration": 0.3000000000000007
        },
        {
          "name": "D4",
          "midi": 62,
          "time": 23.400000000000013,
          "velocity": 0.7874015748031497,
          "duration": 0.3000000000000007
        },
        {
          "name": "E4",
          "midi": 64,
          "time": 24.000000000000014,
          "velocity": 0.7874015748031497,
          "duration": 0.3000000000000007
        },
        {
          "name": "F#4",
          "midi": 66,
          "time": 24.600000000000016,
          "velocity": 0.7874015748031497,
          "duration": 0.3000000000000007
        },
        {
          "name": "F#4",
          "midi": 66,
          "time": 25.800000000000015,
          "velocity": 0.7874015748031497,
          "duration": 0.3000000000000007
        },
        {
          "name": "E4",
          "midi": 64,
          "time": 26.400000000000016,
          "velocity": 0.7874015748031497,
          "duration": 0.3000000000000007
        },
        {
          "name": "D4",
          "midi": 62,
          "time": 27.000000000000018,
          "velocity": 0.8188976377952756,
          "duration": 0.3000000000000007
        },
        {
          "name": "F#5",
          "midi": 78,
          "time": 27.60000000000002,
          "velocity": 0.8188976377952756,
          "duration": 0.6000000000000014
        },
        {
          "name": "C4",
          "midi": 60,
          "time": 28.20000000000002,
          "velocity": 0.8188976377952756,
          "duration": 0.3000000000000007
        },
        {
          "name": "C4",
          "midi": 60,
          "time": 28.800000000000022,
          "velocity": 0.7874015748031497,
          "duration": 0.3000000000000007
        },
        {
          "name": "D4",
          "midi": 62,
          "time": 29.400000000000023,
          "velocity": 0.7874015748031497,
          "duration": 0.3000000000000007
        },
        {
          "name": "D4",
          "midi": 62,
          "time": 30.600000000000023,
          "velocity": 0.7874015748031497,
          "duration": 0.3000000000000007
        },
        {
          "name": "C4",
          "midi": 60,
          "time": 31.200000000000024,
          "velocity": 0.7874015748031497,
          "duration": 0.3000000000000007
        },
        {
          "name": "E4",
          "midi": 64,
          "time": 32.40000000000003,
          "velocity": 0.7874015748031497,
          "duration": 0.29999999999999716
        },
        {
          "name": "D4",
          "midi": 62,
          "time": 33.00000000000002,
          "velocity": 0.7874015748031497,
          "duration": 0.29999999999999716
        },
        {
          "name": "F#5",
          "midi": 78,
          "time": 33.600000000000016,
          "velocity": 0.8188976377952756,
          "duration": 0.29999999999999716
        },
        {
          "name": "C5",
          "midi": 72,
          "time": 34.20000000000001,
          "velocity": 0.8188976377952756,
          "duration": 0.29999999999999716
        },
        {
          "name": "F#5",
          "midi": 78,
          "time": 34.800000000000004,
          "velocity": 0.8188976377952756,
          "duration": 0.29999999999999716
        },
        {
          "name": "C5",
          "midi": 72,
          "time": 35.4,
          "velocity": 0.8188976377952756,
          "duration": 0.29999999999999716
        },
        {
          "name": "F#4",
          "midi": 66,
          "time": 35.99999999999999,
          "velocity": 0.8188976377952756,
          "duration": 0.29999999999999716
        },
        {
          "name": "C5",
          "midi": 72,
          "time": 36.59999999999999,
          "velocity": 0.7874015748031497,
          "duration": 0.14999999999999858,
          "slideParing": 4
        },
        {
          "name": "F#5",
          "midi": 78,
          "time": 37.04999999999998,
          "velocity": 0.7874015748031497,
          "duration": 0.14999999999999858,
          "slideParing": 4
        },
        {
          "name": "C4",
          "midi": 60,
          "time": 37.19999999999998,
          "velocity": 0.8188976377952756,
          "duration": 0.29999999999999716
        }
      ],
      "controlChanges": {
        "6": [
          {
            "number": 6,
            "time": 0,
            "value": 0.09448818897637795
          },
          {
            "number": 6,
            "time": 0,
            "value": 0.09448818897637795
          },
          {
            "number": 6,
            "time": 0,
            "value": 0.09448818897637795
          },
          {
            "number": 6,
            "time": 38.39999999999998,
            "value": 0.09448818897637795
          },
          {
            "number": 6,
            "time": 38.39999999999998,
            "value": 0.09448818897637795
          }
        ],
        "7": [
          {
            "number": 7,
            "time": 0,
            "value": 0.7874015748031497
          },
          {
            "number": 7,
            "time": 0,
            "value": 0.7874015748031497
          },
          {
            "number": 7,
            "time": 0,
            "value": 0.7874015748031497
          },
          {
            "number": 7,
            "time": 0,
            "value": 0.7874015748031497
          },
          {
            "number": 7,
            "time": 38.39999999999998,
            "value": 0.7874015748031497
          },
          {
            "number": 7,
            "time": 38.39999999999998,
            "value": 0.7874015748031497
          }
        ],
        "10": [
          {
            "number": 10,
            "time": 0,
            "value": 0.5039370078740157
          },
          {
            "number": 10,
            "time": 0,
            "value": 0.5039370078740157
          },
          {
            "number": 10,
            "time": 0,
            "value": 0.5039370078740157
          },
          {
            "number": 10,
            "time": 0,
            "value": 0.5039370078740157
          },
          {
            "number": 10,
            "time": 38.39999999999998,
            "value": 0.5039370078740157
          },
          {
            "number": 10,
            "time": 38.39999999999998,
            "value": 0.5039370078740157
          }
        ],
        "100": [
          {
            "number": 100,
            "time": 0,
            "value": 0
          },
          {
            "number": 100,
            "time": 0,
            "value": 0
          },
          {
            "number": 100,
            "time": 0,
            "value": 0
          },
          {
            "number": 100,
            "time": 38.39999999999998,
            "value": 0
          },
          {
            "number": 100,
            "time": 38.39999999999998,
            "value": 0
          }
        ],
        "101": [
          {
            "number": 101,
            "time": 0,
            "value": 0
          },
          {
            "number": 101,
            "time": 0,
            "value": 0
          },
          {
            "number": 101,
            "time": 0,
            "value": 0
          },
          {
            "number": 101,
            "time": 38.39999999999998,
            "value": 0
          },
          {
            "number": 101,
            "time": 38.39999999999998,
            "value": 0
          }
        ]
      },
      "id": 2,
      "name": "Kirby's_Dream_Land_3",
      "instrumentNumber": 0,
      "instrument": "acoustic grand piano",
      "instrumentFamily": "piano",
      "channelNumber": 0,
      "isPercussion": false
    },
    {
      "startTime": 0,
      "duration": 0,
      "length": 0,
      "notes": [],
      "controlChanges": {
        "6": [
          {
            "number": 6,
            "time": 0,
            "value": 0.09448818897637795
          },
          {
            "number": 6,
            "time": 0,
            "value": 0.09448818897637795
          },
          {
            "number": 6,
            "time": 0,
            "value": 0.09448818897637795
          },
          {
            "number": 6,
            "time": 38.4,
            "value": 0.09448818897637795
          },
          {
            "number": 6,
            "time": 38.4,
            "value": 0.09448818897637795
          }
        ],
        "7": [
          {
            "number": 7,
            "time": 0,
            "value": 0.7874015748031497
          },
          {
            "number": 7,
            "time": 0,
            "value": 0.7874015748031497
          },
          {
            "number": 7,
            "time": 0,
            "value": 0.7874015748031497
          },
          {
            "number": 7,
            "time": 0,
            "value": 0.7874015748031497
          },
          {
            "number": 7,
            "time": 38.4,
            "value": 0.7874015748031497
          },
          {
            "number": 7,
            "time": 38.4,
            "value": 0.7874015748031497
          }
        ],
        "10": [
          {
            "number": 10,
            "time": 0,
            "value": 0.5039370078740157
          },
          {
            "number": 10,
            "time": 0,
            "value": 0.5039370078740157
          },
          {
            "number": 10,
            "time": 0,
            "value": 0.5039370078740157
          },
          {
            "number": 10,
            "time": 0,
            "value": 0.5039370078740157
          },
          {
            "number": 10,
            "time": 38.4,
            "value": 0.5039370078740157
          },
          {
            "number": 10,
            "time": 38.4,
            "value": 0.5039370078740157
          }
        ],
        "100": [
          {
            "number": 100,
            "time": 0,
            "value": 0
          },
          {
            "number": 100,
            "time": 0,
            "value": 0
          },
          {
            "number": 100,
            "time": 0,
            "value": 0
          },
          {
            "number": 100,
            "time": 38.4,
            "value": 0
          },
          {
            "number": 100,
            "time": 38.4,
            "value": 0
          }
        ],
        "101": [
          {
            "number": 101,
            "time": 0,
            "value": 0
          },
          {
            "number": 101,
            "time": 0,
            "value": 0
          },
          {
            "number": 101,
            "time": 0,
            "value": 0
          },
          {
            "number": 101,
            "time": 38.4,
            "value": 0
          },
          {
            "number": 101,
            "time": 38.4,
            "value": 0
          }
        ]
      },
      "id": 3,
      "name": "Kirby's_Dream_Land_3 #2",
      "instrumentNumber": 0,
      "instrument": "acoustic grand piano",
      "instrumentFamily": "piano",
      "channelNumber": 1,
      "isPercussion": false
    }
  ]
}