{
  "header": {
    "PPQ": 96,
    "timeSignature": [
      4,
      4
    ],
    "bpm": 100,
    "name": "Kirby's_Dream_Land_3"
  },
  "tempo": [
    {
      "absoluteTime": 0,
      "seconds": 0,
      "bpm": 100
    }
  ],
  "timeSignature": [
    {
      "absoluteTime": 0,
      "seconds": 0,
      "numerator": 4,
      "denominator": 2,
      "click": 24,
      "notesQ": 8
    }
  ],
  "startTime": 0,
  "duration": 37.49999999999995,
  "tracks": [
    {
      "startTime": 0,
      "duration": 0,
      "length": 0,
      "notes": [],
      "controlChanges": {},
      "id": 0
    },
    {
      "startTime": 0,
      "duration": 0,
      "length": 0,
      "notes": [],
      "controlChanges": {},
      "id": 1
    },
    {
      "startTime": 0,
      "duration": 0,
      "length": 0,
      "notes": [],
      "controlChanges": {
        "6": [
          {
            "number": 6,
            "time": 0,
            "value": 0.09448818897637795
          },
          {
            "number": 6,
            "time": 0,
            "value": 0.09448818897637795
          },
          {
            "number": 6,
            "time": 0,
            "value": 0.09448818897637795
          },
          {
            "number": 6,
            "time": 38.4,
            "value": 0.09448818897637795
          },
          {
            "number": 6,
            "time": 38.4,
            "value": 0.09448818897637795
          }
        ],
        "7": [
          {
            "number": 7,
            "time": 0,
            "value": 0.7874015748031497
          },
          {
            "number": 7,
            "time": 0,
            "value": 0.7874015748031497
          },
          {
            "number": 7,
            "time": 0,
            "value": 0.7874015748031497
          },
          {
            "number": 7,
            "time": 0,
            "value": 0.7874015748031497
          },
          {
            "number": 7,
            "time": 38.4,
            "value": 0.7874015748031497
          },
          {
            "number": 7,
            "time": 38.4,
            "value": 0.7874015748031497
          }
        ],
        "10": [
          {
            "number": 10,
            "time": 0,
            "value": 0.5039370078740157
          },
          {
            "number": 10,
            "time": 0,
            "value": 0.5039370078740157
          },
          {
            "number": 10,
            "time": 0,
            "value": 0.5039370078740157
          },
          {
            "number": 10,
            "time": 0,
            "value": 0.5039370078740157
          },
          {
            "number": 10,
            "time": 38.4,
            "value": 0.5039370078740157
          },
          {
            "number": 10,
            "time": 38.4,
            "value": 0.5039370078740157
          }
        ],
        "100": [
          {
            "number": 100,
            "time": 0,
            "value": 0
          },
          {
            "number": 100,
            "time": 0,
            "value": 0
          },
          {
            "number": 100,
            "time": 0,
            "value": 0
          },
          {
            "number": 100,
            "time": 38.4,
            "value": 0
          },
          {
            "number": 100,
            "time": 38.4,
            "value": 0
          }
        ],
        "101": [
          {
            "number": 101,
            "time": 0,
            "value": 0
          },
          {
            "number": 101,
            "time": 0,
            "value": 0
          },
          {
            "number": 101,
            "time": 0,
            "value": 0
          },
          {
            "number": 101,
            "time": 38.4,
            "value": 0
          },
          {
            "number": 101,
            "time": 38.4,
            "value": 0
          }
        ]
      },
      "id": 2,
      "name": "Kirby's_Dream_Land_3",
      "instrumentNumber": 0,
      "instrument": "acoustic grand piano",
      "instrumentFamily": "piano",
      "channelNumber": 0,
      "isPercussion": false
    },
    {
      "startTime": 0,
      "duration": 37.49999999999995,
      "length": 58,
      "notes": [
        {
          "name": "C4",
          "midi": 60,
          "time": 0,
          "velocity": 0.7874015748031497,
          "duration": 0.3
        },
        {
          "name": "D4",
          "midi": 62,
          "time": 0.6,
          "velocity": 0.7874015748031497,
          "duration": 0.29999999999999993
        },
        {
          "name": "D4",
          "midi": 62,
          "time": 1.7999999999999998,
          "velocity": 0.7874015748031497,
          "duration": 0.2999999999999998
        },
        {
          "name": "C4",
          "midi": 60,
          "time": 2.3999999999999995,
          "velocity": 0.7874015748031497,
          "duration": 0.2999999999999998
        },
        {
          "name": "E4",
          "midi": 64,
          "time": 3.599999999999999,
          "velocity": 0.7874015748031497,
          "duration": 0.2999999999999998
        },
        {
          "name": "D4",
          "midi": 62,
          "time": 4.199999999999999,
          "velocity": 0.7874015748031497,
          "duration": 0.2999999999999998
        },
        {
          "name": "E4",
          "midi": 64,
          "time": 4.799999999999999,
          "velocity": 0.7874015748031497,
          "duration": 0.2999999999999998
        },
        {
          "name": "F#4",
          "midi": 66,
          "time": 5.399999999999999,
          "velocity": 0.7874015748031497,
          "duration": 0.2999999999999998
        },
        {
          "name": "F#4",
          "midi": 66,
          "time": 6.599999999999998,
          "velocity": 0.7874015748031497,
          "duration": 0.2999999999999998
        },
        {
          "name": "E4",
          "midi": 64,
          "time": 7.1999999999999975,
          "velocity": 0.7874015748031497,
          "duration": 0.2999999999999998
        },
        {
          "name": "F#5",
          "midi": 78,
          "time": 7.799999999999997,
          "velocity": 0.7874015748031497,
          "duration": 0.3000000000000007
        },
        {
          "name": "C5",
          "midi": 72,
          "time": 8.399999999999999,
          "velocity": 0.7874015748031497,
          "duration": 0.3000000000000007
        },
        {
          "name": "C4",
          "midi": 60,
          "time": 9.6,
          "velocity": 0.7874015748031497,
          "duration": 0.3000000000000007
        },
        {
          "name": "D4",
          "midi": 62,
          "time": 10.200000000000001,
          "velocity": 0.7874015748031497,
          "duration": 0.3000000000000007
        },
        {
          "name": "D4",
          "midi": 62,
          "time": 11.400000000000002,
          "velocity": 0.7874015748031497,
          "duration": 0.3000000000000007
        },
        {
          "name": "C4",
          "midi": 60,
          "time": 12.000000000000004,
          "velocity": 0.7874015748031497,
          "duration": 0.3000000000000007
        },
        {
          "name": "E4",
          "midi": 64,
          "time": 13.200000000000005,
          "velocity": 0.7874015748031497,
          "duration": 0.3000000000000007
        },
        {
          "name": "D4",
          "midi": 62,
          "time": 13.800000000000006,
          "velocity": 0.7874015748031497,
          "duration": 0.3000000000000007
        },
        {
          "name": "E4",
          "midi": 64,
          "time": 14.400000000000007,
          "velocity": 0.7874015748031497,
          "duration": 0.3000000000000007
        },
        {
          "name": "F#4",
          "midi": 66,
          "time": 15.000000000000009,
          "velocity": 0.7874015748031497,
          "duration": 0.3000000000000007
        },
        {
          "name": "F#4",
          "midi": 66,
          "time": 16.20000000000001,
          "velocity": 0.7874015748031497,
          "duration": 0.3000000000000007
        },
        {
          "name": "E4",
          "midi": 64,
          "time": 16.80000000000001,
          "velocity": 0.7874015748031497,
          "duration": 0.3000000000000007
        },
        {
          "name": "F#5",
          "midi": 78,
          "time": 17.400000000000013,
          "velocity": 0.7874015748031497,
          "duration": 0.3000000000000007
        },
        {
          "name": "C5",
          "midi": 72,
          "time": 18.000000000000014,
          "velocity": 0.7874015748031497,
          "duration": 0.3000000000000007
        },
        {
          "name": "F#5",
          "midi": 78,
          "time": 19.200000000000014,
          "velocity": 0.7874015748031497,
          "duration": 0.14999999999999858,
          "slideParing": 1
        },
        {
          "name": "C5",
          "midi": 72,
          "time": 19.650000000000013,
          "velocity": 0.7874015748031497,
          "duration": 0.14999999999999858,
          "slideParing": 1
        },
        {
          "name": "C5",
          "midi": 72,
          "time": 19.80000000000001,
          "velocity": 0.7874015748031497,
          "duration": 0.14999999999999858,
          "slideParing": 2
        },
        {
          "name": "F#5",
          "midi": 78,
          "time": 20.25000000000001,
          "velocity": 0.7874015748031497,
          "duration": 0.14999999999999858,
          "slideParing": 2
        },
        {
          "name": "F#4",
          "midi": 66,
          "time": 20.40000000000001,
          "velocity": 0.7874015748031497,
          "duration": 0.3000000000000007
        },
        {
          "name": "F#5",
          "midi": 78,
          "time": 21.60000000000001,
          "velocity": 0.7874015748031497,
          "duration": 0.14999999999999858,
          "slideParing": 3
        },
        {
          "name": "C5",
          "midi": 72,
          "time": 22.050000000000008,
          "velocity": 0.7874015748031497,
          "duration": 0.14999999999999858,
          "slideParing": 3
        },
        {
          "name": "C5",
          "midi": 72,
          "time": 22.200000000000006,
          "velocity": 0.7874015748031497,
          "duration": 0.14999999999999858,
          "slideParing": 4
        },
        {
          "name": "F#5",
          "midi": 78,
          "time": 22.650000000000006,
          "velocity": 0.7874015748031497,
          "duration": 0.14999999999999858,
          "slideParing": 4
        },
        {
          "name": "F#4",
          "midi": 66,
          "time": 22.800000000000004,
          "velocity": 0.7874015748031497,
          "duration": 0.3000000000000007
        },
        {
          "name": "C5",
          "midi": 72,
          "time": 24.000000000000004,
          "velocity": 0.7874015748031497,
          "duration": 0.6000000000000014
        },
        {
          "name": "F#4",
          "midi": 66,
          "time": 24.600000000000005,
          "velocity": 0.8188976377952756,
          "duration": 0.3000000000000007
        },
        {
          "name": "F#5",
          "midi": 78,
          "time": 25.200000000000006,
          "velocity": 0.7874015748031497,
          "duration": 0.6000000000000014
        },
        {
          "name": "F#4",
          "midi": 66,
          "time": 25.800000000000008,
          "velocity": 0.7874015748031497,
          "duration": 0.3000000000000007
        },
        {
          "name": "E4",
          "midi": 64,
          "time": 26.40000000000001,
          "velocity": 0.8188976377952756,
          "duration": 0.3000000000000007
        },
        {
          "name": "C5",
          "midi": 72,
          "time": 28.80000000000001,
          "velocity": 0.7874015748031497,
          "duration": 0.14999999999999858,
          "slideParing": 5
        },
        {
          "name": "F#5",
          "midi": 78,
          "time": 29.25000000000001,
          "velocity": 0.7874015748031497,
          "duration": 0.14999999999999858,
          "slideParing": 5
        },
        {
          "name": "F#5",
          "midi": 78,
          "time": 29.40000000000001,
          "velocity": 0.7874015748031497,
          "duration": 0.14999999999999858,
          "slideParing": 6
        },
        {
          "name": "C5",
          "midi": 72,
          "time": 29.85000000000001,
          "velocity": 0.7874015748031497,
          "duration": 0.14999999999999858,
          "slideParing": 6
        },
        {
          "name": "F#4",
          "midi": 66,
          "time": 30.000000000000007,
          "velocity": 0.8188976377952756,
          "duration": 0.3000000000000007
        },
        {
          "name": "C5",
          "midi": 72,
          "time": 31.200000000000006,
          "velocity": 0.7874015748031497,
          "duration": 0.14999999999999858
        },
        {
          "name": "F#5",
          "midi": 78,
          "time": 31.650000000000006,
          "velocity": 0.7874015748031497,
          "duration": 0.14999999999999858
        },
        {
          "name": "F#5",
          "midi": 78,
          "time": 31.800000000000004,
          "velocity": 0.7874015748031497,
          "duration": 0.14999999999999858
        },
        {
          "name": "C5",
          "midi": 72,
          "time": 32.25,
          "velocity": 0.7874015748031497,
          "duration": 0.14999999999999858
        },
        {
          "name": "F#4",
          "midi": 66,
          "time": 32.4,
          "velocity": 0.8188976377952756,
          "duration": 0.29999999999999716
        },
        {
          "name": "E4",
          "midi": 64,
          "time": 32.99999999999999,
          "velocity": 0.8188976377952756,
          "duration": 0.29999999999999716
        },
        {
          "name": "F#5",
          "midi": 78,
          "time": 33.59999999999999,
          "velocity": 0.8188976377952756,
          "duration": 0.29999999999999716
        },
        {
          "name": "C5",
          "midi": 72,
          "time": 34.19999999999998,
          "velocity": 0.8188976377952756,
          "duration": 0.29999999999999716
        },
        {
          "name": "F#5",
          "midi": 78,
          "time": 34.799999999999976,
          "velocity": 0.8188976377952756,
          "duration": 0.29999999999999716
        },
        {
          "name": "C5",
          "midi": 72,
          "time": 35.39999999999997,
          "velocity": 0.8188976377952756,
          "duration": 0.29999999999999716
        },
        {
          "name": "F#4",
          "midi": 66,
          "time": 35.999999999999964,
          "velocity": 0.8188976377952756,
          "duration": 0.29999999999999716
        },
        {
          "name": "C5",
          "midi": 72,
          "time": 36.59999999999996,
          "velocity": 0.7874015748031497,
          "duration": 0.14999999999999858,
          "slideParing": 7
        },
        {
          "name": "F#5",
          "midi": 78,
          "time": 37.049999999999955,
          "velocity": 0.7874015748031497,
          "duration": 0.14999999999999858,
          "slideParing": 7
        },
        {
          "name": "C4",
          "midi": 60,
          "time": 37.19999999999995,
          "velocity": 0.8188976377952756,
          "duration": 0.29999999999999716
        }
      ],
      "controlChanges": {
        "6": [
          {
            "number": 6,
            "time": 0,
            "value": 0.09448818897637795
          },
          {
            "number": 6,
            "time": 0,
            "value": 0.09448818897637795
          },
          {
            "number": 6,
            "time": 0,
            "value": 0.09448818897637795
          },
          {
            "number": 6,
            "time": 38.39999999999995,
            "value": 0.09448818897637795
          },
          {
            "number": 6,
            "time": 38.39999999999995,
            "value": 0.09448818897637795
          }
        ],
        "7": [
          {
            "number": 7,
            "time": 0,
            "value": 0.7874015748031497
          },
          {
            "number": 7,
            "time": 0,
            "value": 0.7874015748031497
          },
          {
            "number": 7,
            "time": 0,
            "value": 0.7874015748031497
          },
          {
            "number": 7,
            "time": 0,
            "value": 0.7874015748031497
          },
          {
            "number": 7,
            "time": 38.39999999999995,
            "value": 0.7874015748031497
          },
          {
            "number": 7,
            "time": 38.39999999999995,
            "value": 0.7874015748031497
          }
        ],
        "10": [
          {
            "number": 10,
            "time": 0,
            "value": 0.5039370078740157
          },
          {
            "number": 10,
            "time": 0,
            "value": 0.5039370078740157
          },
          {
            "number": 10,
            "time": 0,
            "value": 0.5039370078740157
          },
          {
            "number": 10,
            "time": 0,
            "value": 0.5039370078740157
          },
          {
            "number": 10,
            "time": 38.39999999999995,
            "value": 0.5039370078740157
          },
          {
            "number": 10,
            "time": 38.39999999999995,
            "value": 0.5039370078740157
          }
        ],
        "100": [
          {
            "number": 100,
            "time": 0,
            "value": 0
          },
          {
            "number": 100,
            "time": 0,
            "value": 0
          },
          {
            "number": 100,
            "time": 0,
            "value": 0
          },
          {
            "number": 100,
            "time": 38.39999999999995,
            "value": 0
          },
          {
            "number": 100,
            "time": 38.39999999999995,
            "value": 0
          }
        ],
        "101": [
          {
            "number": 101,
            "time": 0,
            "value": 0
          },
          {
            "number": 101,
            "time": 0,
            "value": 0
          },
          {
            "number": 101,
            "time": 0,
            "value": 0
          },
          {
            "number": 101,
            "time": 38.39999999999995,
            "value": 0
          },
          {
            "number": 101,
            "time": 38.39999999999995,
            "value": 0
          }
        ]
      },
      "id": 3,
      "name": "Kirby's_Dream_Land_3 #2",
      "instrumentNumber": 0,
      "instrument": "acoustic grand piano",
      "instrumentFamily": "piano",
      "channelNumber": 1,
      "isPercussion": false
    }
  ]
}