<?xml version="1.0" encoding="utf-8"?>
<!-- Generator: Moho 14.2 build 20240604 -->
<!DOCTYPE svg PUBLIC "-//W3C//DTD SVG 1.1//EN" "http://www.w3.org/Graphics/SVG/1.1/DTD/svg11.dtd">
<svg version="1.1" id="Frame_0" xmlns="http://www.w3.org/2000/svg" xmlns:xlink="http://www.w3.org/1999/xlink" width="1280px" height="720px">
<g id="A">
<g id="A">
<path id="S1" fill="#79ce83" fill-rule="evenodd" stroke="#2c6827" stroke-width="10" stroke-linecap="round" stroke-linejoin="round" d="M 627.648 45.202 C 795.989 45.202 931.790 181.003 931.790 349.344 C 931.790 517.684 795.989 653.486 627.648 653.486 C 459.307 653.486 323.506 517.684 323.506 349.344 C 323.506 181.003 459.307 45.202 627.648 45.202 Z"/>
</g>
<g id="">
<path id="S1" fill="#2c6827" fill-rule="evenodd" stroke="none" d="M 621.293 266.582 C 623.168 266.585 625.044 266.585 626.923 266.582 C 636.392 308.135 645.864 349.685 655.338 391.233 C 634.158 391.235 612.981 391.234 591.806 391.233 C 601.633 349.685 611.462 308.135 621.293 266.582 M 445.710 539.474 C 482.792 539.474 519.874 539.474 556.957 539.474 C 562.407 516.420 567.857 493.367 573.309 470.313 C 606.637 470.313 639.966 470.313 673.298 470.313 C 678.568 493.367 683.840 516.420 689.114 539.474 C 729.142 539.474 769.173 539.474 809.208 539.474 C 772.569 417.505 735.933 295.536 699.300 173.563 C 651.761 173.567 604.225 173.567 556.689 173.563 C 519.695 295.536 482.702 417.505 445.710 539.474 Z"/>
</g>
</g>
</svg>
