<?xml version="1.0" encoding="utf-8"?>
<!-- Generator: Moho 14.2 build 20240604 -->
<!DOCTYPE svg PUBLIC "-//W3C//DTD SVG 1.1//EN" "http://www.w3.org/Graphics/SVG/1.1/DTD/svg11.dtd">
<svg version="1.1" id="Frame_0" xmlns="http://www.w3.org/2000/svg" xmlns:xlink="http://www.w3.org/1999/xlink" width="1280px" height="720px">
<g id="B">
<g id="B">
<path id="S1" fill="#d2907c" fill-rule="evenodd" stroke="#892b19" stroke-width="10" stroke-linecap="round" stroke-linejoin="round" d="M 627.648 45.202 C 795.989 45.202 931.790 181.003 931.790 349.344 C 931.790 517.684 795.989 653.486 627.648 653.486 C 459.307 653.486 323.506 517.684 323.506 349.344 C 323.506 181.003 459.307 45.202 627.648 45.202 Z"/>
</g>
<g id="">
<path id="S1" fill="#892b19" fill-rule="evenodd" stroke="none" d="M 583.362 464.415 C 583.360 437.520 583.360 410.624 583.362 383.727 C 595.959 383.729 608.558 383.729 621.159 383.727 C 632.061 383.727 640.996 385.425 647.966 388.820 C 655.114 392.216 660.386 396.952 663.782 403.028 C 667.177 408.925 668.875 415.716 668.875 423.401 C 668.875 434.481 665.122 444.131 657.616 452.352 C 650.289 460.394 638.315 464.415 621.695 464.415 C 608.916 464.416 596.138 464.416 583.362 464.415 M 583.362 317.247 C 583.360 294.374 583.360 271.499 583.362 248.622 C 594.798 248.625 606.235 248.625 617.674 248.622 C 630.720 248.622 640.728 251.839 647.698 258.272 C 654.846 264.527 658.420 272.658 658.420 282.666 C 658.420 288.564 656.991 294.193 654.131 299.554 C 651.451 304.737 647.162 309.026 641.264 312.422 C 635.367 315.638 627.682 317.247 618.210 317.247 C 606.592 317.249 594.976 317.249 583.362 317.247 M 472.114 173.563 C 472.114 295.536 472.114 417.505 472.114 539.474 C 533.411 539.474 594.708 539.474 656.008 539.474 C 678.347 539.474 699.166 535.453 718.467 527.411 C 737.768 519.369 753.316 507.574 765.111 492.026 C 776.906 476.478 782.803 457.445 782.803 434.928 C 782.803 414.555 778.246 398.024 769.132 385.336 C 760.018 372.647 748.937 363.265 735.892 357.189 C 722.846 351.112 710.247 347.896 698.094 347.538 C 698.092 345.842 698.091 344.145 698.094 342.445 C 709.532 341.015 720.522 337.262 731.066 331.186 C 741.610 324.931 750.278 316.174 757.069 304.916 C 763.860 293.657 767.255 279.807 767.255 263.365 C 767.255 234.772 756.265 212.701 734.283 197.153 C 712.480 181.426 683.976 173.563 648.770 173.563 C 589.883 173.567 530.999 173.567 472.114 173.563 Z"/>
</g>
</g>
</svg>
