<?xml version="1.0" encoding="utf-8"?>
<!-- Generator: Moho 14.2 build 20240604 -->
<!DOCTYPE svg PUBLIC "-//W3C//DTD SVG 1.1//EN" "http://www.w3.org/Graphics/SVG/1.1/DTD/svg11.dtd">
<svg version="1.1" id="Frame_0" xmlns="http://www.w3.org/2000/svg" xmlns:xlink="http://www.w3.org/1999/xlink" width="1280px" height="720px">
<g id="X">
<g id="X">
<path id="S1" fill="#6262c5" fill-rule="evenodd" stroke="#212f7f" stroke-width="10" stroke-linecap="round" stroke-linejoin="round" d="M 627.648 45.202 C 795.989 45.202 931.790 181.003 931.790 349.344 C 931.790 517.684 795.989 653.486 627.648 653.486 C 459.307 653.486 323.506 517.684 323.506 349.344 C 323.506 181.003 459.307 45.202 627.648 45.202 Z"/>
</g>
<g id="">
<path id="S1" fill="#212f80" fill-rule="evenodd" stroke="none" d="M 808.269 173.563 C 766.537 173.567 724.809 173.567 683.082 173.563 C 666.281 210.470 649.483 247.374 632.686 284.275 C 631.165 284.277 629.646 284.277 628.129 284.275 C 611.328 247.374 594.530 210.470 577.732 173.563 C 534.037 173.567 490.342 173.567 446.648 173.563 C 481.318 234.149 515.987 294.732 550.658 355.312 C 516.166 416.701 481.675 478.087 447.184 539.474 C 486.768 539.474 526.352 539.474 565.938 539.474 C 584.611 504.179 603.286 468.884 621.963 433.588 C 623.391 433.589 624.821 433.589 626.252 433.588 C 645.104 468.884 663.958 504.179 682.815 539.474 C 724.541 539.474 766.269 539.474 808.002 539.474 C 771.809 478.087 735.621 416.701 699.435 355.312 C 735.710 294.732 771.988 234.149 808.269 173.563 Z"/>
</g>
</g>
</svg>
