<?xml version="1.0" encoding="utf-8"?>
<!-- Generator: Moho 14.2 build 20240604 -->
<!DOCTYPE svg PUBLIC "-//W3C//DTD SVG 1.1//EN" "http://www.w3.org/Graphics/SVG/1.1/DTD/svg11.dtd">
<svg version="1.1" id="Frame_0" xmlns="http://www.w3.org/2000/svg" xmlns:xlink="http://www.w3.org/1999/xlink" width="1280px" height="720px">
<g id="Y">
<g id="Y">
<path id="S1" fill="#cbd27c" fill-rule="evenodd" stroke="#b2923b" stroke-width="10" stroke-linecap="round" stroke-linejoin="round" d="M 627.648 45.202 C 795.989 45.202 931.790 181.003 931.790 349.344 C 931.790 517.684 795.989 653.486 627.648 653.486 C 459.307 653.486 323.506 517.684 323.506 349.344 C 323.506 181.003 459.307 45.202 627.648 45.202 Z"/>
</g>
<g id="">
<path id="S1" fill="#b69947" fill-rule="evenodd" stroke="none" d="M 683.753 539.474 C 683.750 501.587 683.750 463.701 683.753 425.814 C 724.675 341.732 765.599 257.649 806.527 173.563 C 767.386 173.567 728.249 173.567 689.114 173.563 C 669.900 221.550 650.689 269.534 631.480 317.515 C 630.138 317.517 628.797 317.517 627.459 317.515 C 608.424 269.534 589.392 221.550 570.361 173.563 C 529.703 173.567 489.047 173.567 448.390 173.563 C 489.315 258.811 530.239 344.055 571.165 429.298 C 571.164 466.024 571.164 502.749 571.165 539.474 C 608.693 539.474 646.221 539.474 683.753 539.474 Z"/>
</g>
</g>
</svg>
